<?xml version="1.0" encoding="utf-8"?>
<svg xmlns="http://www.w3.org/2000/svg" style="margin: auto; background: rgb(0, 0, 0) none repeat scroll 0% 0%; display: block; shape-rendering: auto;" width="232" height="127" preserveAspectRatio="xMidYMid">
<style type="text/css">
  text {
    text-anchor: middle; font-size: 72px; opacity: 0;
  }
</style>
<g style="transform-origin: 116px 63.5px 0px; transform: scale(1.28571);">
<g transform="translate(116,63.5)">
  <g transform="translate(0,0)"><g class="path" style="transform: scale(0.91); transform-origin: -64.1466px -3.64845px 0px; animation: 1.38889s linear -0.763889s infinite normal forwards running breath-098015ea-5e39-445c-9edd-dc03e031c1e9;"><path d="M19.49-31.02L19.49-31.02L19.71-32.76L19.71-32.76Q19.71-35.34 17.70-36.06L17.70-36.06L17.70-36.06Q16.13-36.57 15.29-36.57L15.29-36.57L15.23-36.57L15.23-36.57Q13.55-36.57 12.32-36.04L12.32-36.04L12.32-36.04Q11.09-35.50 10.53-34.72L10.53-34.72L10.53-34.72Q9.35-33.10 9.18-31.30L9.18-31.30L9.18-31.30Q9.18-29.18 11.09-27.64L11.09-27.64L11.09-27.64Q12.99-26.10 15.71-24.95L15.71-24.95L15.71-24.95Q18.42-23.80 21.14-22.46L21.14-22.46L21.14-22.46Q23.86-21.11 25.76-18.59L25.76-18.59L25.76-18.59Q27.66-16.07 27.66-12.54L27.66-12.54L27.66-12.54Q27.66-5.66 23.32-2.24L23.32-2.24L23.32-2.24Q18.98 1.18 13.47 1.18L13.47 1.18L13.47 1.18Q7.95 1.18 4.34-1.32L4.34-1.32L4.34-1.32Q0.73-3.81 0.73-8.01L0.73-8.01L0.73-8.06L0.73-8.06Q0.73-10.14 1.37-11.68L1.37-11.68L1.37-11.68Q2.02-13.22 2.91-13.94L2.91-13.94L2.91-13.94Q4.76-15.46 6.27-15.57L6.27-15.57L6.94-15.62L6.94-15.62Q8.51-15.62 9.80-14.87L9.80-14.87L9.80-14.87Q11.09-14.11 11.09-12.77L11.09-12.77L11.09-12.77Q11.09-12.10 10.36-11.65L10.36-11.65L10.36-11.65Q9.63-11.20 9.10-10.30L9.10-10.30L9.10-10.30Q8.57-9.41 8.51-8.79L8.51-8.79L8.40-8.18L8.40-8.18Q8.40-4.76 11.54-3.64L11.54-3.64L11.54-3.64Q12.66-3.25 13.33-3.25L13.33-3.25L13.33-3.25Q16.41-3.25 18.28-5.10L18.28-5.10L18.28-5.10Q20.16-6.94 20.16-9.80L20.16-9.80L20.16-9.80Q20.16-13.22 17.25-15.34L17.25-15.34L17.25-15.34Q15.06-16.91 12.52-17.98L12.52-17.98L12.52-17.98Q9.97-19.04 9.07-19.49L9.07-19.49L9.07-19.49Q8.18-19.94 7.17-20.55L7.17-20.55L7.17-20.55Q6.16-21.17 4.93-22.29L4.93-22.29L4.93-22.29Q2.24-24.64 2.24-28.64L2.24-28.64L2.24-28.64Q2.24-32.65 4.42-35.39L4.42-35.39L4.42-35.39Q8.34-40.38 16.18-40.38L16.18-40.38L16.18-40.38Q20.33-40.38 23.18-38.78L23.18-38.78L23.18-38.78Q26.04-37.18 26.04-34.38L26.04-34.38L26.04-34.38Q26.04-32.37 24.89-31.02L24.89-31.02L24.89-31.02Q23.74-29.68 21.95-29.68L21.95-29.68L21.95-29.68Q21.11-29.68 20.30-30.02L20.30-30.02L20.30-30.02Q19.49-30.35 19.49-31.02" fill="#ffffff" stroke="none" stroke-width="none" transform="translate(-78.34164428710938,15.951554718017578)" style="fill: rgb(255, 255, 255);"></path></g><g class="path" style="transform: scale(0.91); transform-origin: -38.4116px 3.66156px 0px; animation: 1.38889s linear -0.305556s infinite normal forwards running breath-098015ea-5e39-445c-9edd-dc03e031c1e9;"><path d="M48.94-16.80L48.94-16.80L48.83-9.63L48.83-9.63Q48.83-2.18 50.46-0.67L50.46-0.67L50.46-0.67Q50.68-0.45 50.68-0.17L50.68-0.17L50.68-0.17Q50.68 0.67 47.07 0.67L47.07 0.67L47.07 0.67Q43.46 0.67 43.23-1.46L43.23-1.46L43.23-1.46Q43.18-1.96 43.18-3.53L43.18-3.53L43.40-12.49L43.40-12.49Q43.40-12.88 42.95-12.88L42.95-12.88L42.95-12.88Q40.26-12.88 37.91-11.37L37.91-11.37L37.91-11.37Q35.56-9.86 35.56-7.50L35.56-7.50L35.56-7.50Q35.56-6.27 36.23-5.43L36.23-5.43L36.23-5.43Q36.90-4.59 37.88-4.59L37.88-4.59L37.88-4.59Q38.86-4.59 39.51-4.98L39.51-4.98L39.51-4.98Q40.15-5.38 40.26-5.43L40.26-5.43L40.26-5.43Q41.22-5.32 41.22-3.44L41.22-3.44L41.22-3.44Q41.22-1.57 39.48-0.42L39.48-0.42L39.48-0.42Q37.74 0.73 35.84 0.73L35.84 0.73L35.84 0.73Q33.94 0.73 32.56 0.06L32.56 0.06L32.56 0.06Q31.19-0.62 30.58-1.46L30.58-1.46L30.58-1.46Q29.96-2.30 29.57-3.36L29.57-3.36L29.57-3.36Q29.18-4.65 29.18-5.60L29.18-5.60L29.18-5.60Q29.18-9.52 31.64-11.87L31.64-11.87L31.64-11.87Q34.10-14.22 37.97-15.23L37.97-15.23L37.97-15.23Q43.06-16.24 43.29-17.08L43.29-17.08L43.29-17.08Q43.46-17.70 43.46-19.15L43.46-19.15L43.46-19.15Q43.46-22.12 40.43-22.12L40.43-22.12L40.43-22.12Q39.14-22.12 38.14-21.31L38.14-21.31L38.14-21.31Q37.13-20.50 37.13-19.26L37.13-19.26L37.46-17.92L37.46-17.92Q37.35-16.97 35.45-16.80L35.45-16.80L34.83-16.74L34.83-16.74Q33.15-16.74 32.17-17.58L32.17-17.58L32.17-17.58Q31.19-18.42 31.19-19.82L31.19-19.82L31.19-19.82Q31.19-20.72 31.78-21.81L31.78-21.81L31.78-21.81Q32.37-22.90 33.26-23.58L33.26-23.58L33.26-23.58Q34.16-24.25 36.04-24.78L36.04-24.78L36.04-24.78Q37.91-25.31 39.65-25.31L39.65-25.31L39.65-25.31Q41.38-25.31 42.34-25.20L42.34-25.20L42.34-25.20Q43.29-25.09 44.94-24.67L44.94-24.67L44.94-24.67Q46.59-24.25 47.68-23.07L47.68-23.07L47.68-23.07Q48.78-21.90 48.86-20.58L48.86-20.58L48.86-20.58Q48.94-19.26 48.94-16.80" fill="#ffffff" stroke="none" stroke-width="none" transform="translate(-78.34164428710938,15.951554718017578)" style="fill: rgb(255, 255, 255);"></path></g><g class="path" style="transform: scale(0.91); transform-origin: -9.63165px 3.74155px 0px; animation: 1.38889s linear -0.611111s infinite normal forwards running breath-098015ea-5e39-445c-9edd-dc03e031c1e9;"><path d="M65.02 0.34L65.02 0.34L65.02 0.34Q65.80-3.58 65.80-10.67L65.80-10.67L65.80-10.67Q65.80-17.75 65.74-19.04L65.74-19.04L65.74-19.04Q65.69-20.33 64.96-21.11L64.96-21.11L64.96-21.11Q64.23-21.90 63.70-22.01L63.70-22.01L63.70-22.01Q63.17-22.12 62.22-22.12L62.22-22.12L62.22-22.12Q61.26-22.12 60.37-21.25L60.37-21.25L60.37-21.25Q59.47-20.38 59.30-19.49L59.30-19.49L59.08-18.59L59.08-18.59Q58.91-16.91 58.91-11.14L58.91-11.14L58.91-11.14Q58.91-5.38 59.16-3.89L59.16-3.89L59.16-3.89Q59.42-2.41 59.42-1.90L59.42-1.90L59.42-1.90Q59.42-1.40 58.97-0.90L58.97-0.90L58.97-0.90Q57.06 1.12 53.59 1.12L53.59 1.12L53.59 1.12Q52.36 1.12 52.36 0.39L52.36 0.39L52.36 0.39Q53.48-6.33 53.48-16.74L53.48-16.74L53.48-16.74Q53.48-20.61 53.31-21.95L53.31-21.95L53.09-23.74L53.09-23.74Q53.03-24.36 52.86-25.09L52.86-25.09L52.86-25.09Q52.86-25.76 54.60-25.76L54.60-25.76L54.60-25.76Q57.18-25.76 58.02-23.86L58.02-23.86L58.02-23.86Q58.07-23.63 58.24-23.63L58.24-23.63L58.24-23.63Q58.41-23.63 59.02-24.08L59.02-24.08L59.02-24.08Q60.87-25.54 64.01-25.54L64.01-25.54L64.01-25.54Q65.80-25.54 67.54-24.86L67.54-24.86L67.54-24.86Q69.27-24.19 69.94-23.07L69.94-23.07L69.94-23.07Q70-22.96 70.11-22.96L70.11-22.96L70.11-22.96Q70.22-22.96 70.45-23.18L70.45-23.18L70.45-23.18Q72.80-25.54 76.55-25.54L76.55-25.54L76.55-25.54Q81.54-25.54 83.38-21.95L83.38-21.95L83.38-21.95Q84.06-20.55 84.06-18.42L84.06-18.42L84.06-18.42Q84.06-16.30 83.72-12.38L83.72-12.38L83.72-12.38Q83.38-8.46 83.38-6.38L83.38-6.38L83.38-6.38Q83.38-4.31 83.80-2.63L83.80-2.63L83.80-2.63Q84.22-0.95 84.64-0.22L84.64-0.22L84.64-0.22Q85.06 0.50 85.06 0.62L85.06 0.62L85.06 0.62Q85.06 1.34 83.50 1.34L83.50 1.34L83.50 1.34Q79.63 1.34 78.12-0.22L78.12-0.22L78.12-0.22Q76.61-1.79 76.61-4.34L76.61-4.34L76.61-4.34Q76.61-6.89 77.64-11.23L77.64-11.23L77.64-11.23Q78.68-15.57 78.68-17.75L78.68-17.75L78.68-17.75Q78.68-22.18 75.10-22.18L75.10-22.18L75.10-22.18Q73.58-22.18 72.69-21.28L72.69-21.28L72.69-21.28Q71.79-20.38 71.62-19.49L71.62-19.49L71.51-18.59L71.51-18.59Q71.29-16.02 71.29-12.38L71.29-12.38L71.29-12.38Q71.29-8.74 71.40-6.69L71.40-6.69L71.40-6.69Q71.51-4.65 71.62-3.50L71.62-3.50L71.62-3.50Q71.74-2.35 71.74-2.13L71.74-2.13L71.74-2.13Q71.74-0.56 69.78 0.28L69.78 0.28L69.78 0.28Q67.82 1.12 65.97 1.12L65.97 1.12L65.97 1.12Q65.02 1.12 65.02 0.34" fill="#ffffff" stroke="none" stroke-width="none" transform="translate(-78.34164428710938,15.951554718017578)" style="fill: rgb(255, 255, 255);"></path></g><g class="path" style="transform: scale(0.91); transform-origin: 23.1884px -3.84345px 0px; animation: 1.38889s linear -0.458333s infinite normal forwards running breath-098015ea-5e39-445c-9edd-dc03e031c1e9;"><path d="M101.47-32.09L101.47-32.09L101.47-32.09Q97.05-26.54 95.09-21L95.09-21L95.14-21L95.14-21Q102.93-21 104.08-20.97L104.08-20.97L104.08-20.97Q105.22-20.94 105.34-21.06L105.34-21.06L105.34-21.06Q105.45-21.17 105.50-21.34L105.50-21.34L105.50-21.34Q104.55-28.22 103.99-30.72L103.99-30.72L103.99-30.72Q103.43-33.21 102.87-33.21L102.87-33.21L102.87-33.21Q102.31-33.21 101.47-32.09zM96.49-5.71L96.49-5.71L97.72-5.94L97.72-5.94Q98.28-5.94 98.28-5.32L98.28-5.32L98.28-5.32Q98.28-3.36 97.50-2.02L97.50-2.02L97.50-2.02Q96.71-0.67 95.54-0.11L95.54-0.11L95.54-0.11Q93.63 0.84 92.29 0.84L92.29 0.84L92.29 0.84Q89.71 0.84 88.42-1.09L88.42-1.09L88.42-1.09Q87.14-3.02 87.14-6.92L87.14-6.92L87.14-6.92Q87.14-10.81 89.26-17.02L89.26-17.02L86.02-17.02L86.02-17.02Q85.40-17.02 85.40-17.64L85.40-17.64L85.40-17.64Q85.40-18.26 86.35-19.63L86.35-19.63L86.35-19.63Q87.30-21 88.37-21L88.37-21L90.89-21L90.89-21Q94.86-29.85 100.24-36.29L100.24-36.29L100.24-36.29Q101.64-37.97 103.68-39.42L103.68-39.42L103.68-39.42Q105.73-40.88 106.85-40.88L106.85-40.88L106.85-40.88Q107.97-40.88 108.53-39.87L108.53-39.87L108.53-39.87Q109.98-37.52 111.94-22.68L111.94-22.68L111.94-22.68Q112.62-16.30 114.27-9.49L114.27-9.49L114.27-9.49Q115.92-2.69 117.32-1.57L117.32-1.57L117.32-1.57Q117.66-1.34 117.66-1.01L117.66-1.01L117.66-1.01Q117.66-0.17 115.28 0.56L115.28 0.56L115.28 0.56Q112.90 1.29 111.64 1.29L111.64 1.29L111.64 1.29Q110.38 1.29 109.70 0.98L109.70 0.98L109.70 0.98Q109.03 0.67 108.86 0.34L108.86 0.34L108.86 0.34Q107.86-1.85 106.85-10.08L106.85-10.08L106.51-12.71L106.51-12.71Q106.29-15.34 106.06-16.69L106.06-16.69L105.67-16.97L93.97-17.02L93.97-17.02Q93.30-14.17 93.30-12.04L93.30-12.04L93.30-12.04Q93.30-9.91 93.44-8.93L93.44-8.93L93.44-8.93Q93.58-7.95 94.36-6.83L94.36-6.83L94.36-6.83Q95.14-5.71 96.49-5.71" fill="#ffffff" stroke="none" stroke-width="none" transform="translate(-78.34164428710938,15.951554718017578)" style="fill: rgb(255, 255, 255);"></path></g><g class="path" style="transform: scale(0.91); transform-origin: 49.3384px 3.65655px 0px; animation: 1.38889s linear -0.152778s infinite normal forwards running breath-098015ea-5e39-445c-9edd-dc03e031c1e9;"><path d="M136.36-19.26L136.08-15.01L136.30-13.05L136.30-13.05Q136.30-11.98 134.29-11.98L134.29-11.98L134.29-11.98Q130.20-11.98 130.20-15.06L130.20-15.06L130.20-15.06Q130.20-15.79 130.59-17.08L130.59-17.08L130.59-17.08Q130.98-18.37 130.98-19.32L130.98-19.32L130.98-19.32Q130.98-20.27 130.42-20.97L130.42-20.97L130.42-20.97Q129.86-21.67 128.80-21.67L128.80-21.67L128.80-21.67Q127.74-21.67 126.98-20.92L126.98-20.92L126.98-20.92Q126.22-20.16 126.06-19.38L126.06-19.38L125.83-18.59L125.83-18.59Q125.50-16.86 125.50-12.80L125.50-12.80L125.50-12.80Q125.50-8.74 125.61-6.41L125.61-6.41L125.61-6.41Q125.72-4.09 125.83-3.22L125.83-3.22L125.83-3.22Q125.94-2.35 125.94-2.18L125.94-2.18L125.94-2.18Q125.94-0.78 124.21 0.08L124.21 0.08L124.21 0.08Q122.47 0.95 120.74 0.95L120.74 0.95L120.74 0.95Q119 0.95 119 0.22L119 0.22L119.28-1.51L119.28-1.51Q120.06-6.38 120.06-14.22L120.06-14.22L120.06-14.22Q120.06-22.06 119.50-24.86L119.50-24.86L119.50-24.86Q119.50-25.54 120.68-25.54L120.68-25.54L120.68-25.54Q123.70-25.54 124.71-23.46L124.71-23.46L124.71-23.46Q124.77-23.24 124.91-23.24L124.91-23.24L124.91-23.24Q125.05-23.24 125.66-23.74L125.66-23.74L125.66-23.74Q127.51-25.26 130.03-25.26L130.03-25.26L130.03-25.26Q131.60-25.26 133.17-24.64L133.17-24.64L133.17-24.64Q136.36-23.35 136.36-19.26L136.36-19.26" fill="#ffffff" stroke="none" stroke-width="none" transform="translate(-78.34164428710938,15.951554718017578)" style="fill: rgb(255, 255, 255);"></path></g><g class="path" style="transform: scale(0.91); transform-origin: 69.6384px 3.71655px 0px; animation: 1.38889s linear 0s infinite normal forwards running breath-098015ea-5e39-445c-9edd-dc03e031c1e9;"><path d="M157.19-6.44L157.19-6.44L157.19-6.44Q157.19-3.25 154.64-1.15L154.64-1.15L154.64-1.15Q152.10 0.95 148.57 0.95L148.57 0.95L148.57 0.95Q143.42 0.95 141.01-2.16L141.01-2.16L141.01-2.16Q138.60-5.26 138.60-10.58L138.60-10.58L138.60-10.58Q138.60-16.24 141.12-20.61L141.12-20.61L141.12-20.61Q142.35-22.85 144.65-24.14L144.65-24.14L144.65-24.14Q146.94-25.42 150.02-25.42L150.02-25.42L150.02-25.42Q154.67-25.42 156.58-22.29L156.58-22.29L156.58-22.29Q157.36-21 157.36-19.26L157.36-19.26L157.36-19.26Q157.36-16.58 155.12-15.23L155.12-15.23L155.12-15.23Q154.22-14.73 153.47-14.73L153.47-14.73L153.47-14.73Q152.71-14.73 152.24-14.81L152.24-14.81L152.24-14.81Q151.76-14.90 150.98-15.57L150.98-15.57L150.98-15.57Q150.19-16.24 150.19-17.42L150.19-17.42L150.19-17.42Q150.25-18.03 151.14-18.42L151.14-18.42L151.14-18.42Q151.98-18.93 151.98-20.22L151.98-20.22L151.98-20.22Q151.98-22.40 149.30-22.40L149.30-22.40L149.30-22.40Q148.62-22.40 147.70-21.81L147.70-21.81L147.70-21.81Q146.78-21.22 146.16-20.30L146.16-20.30L146.16-20.30Q145.54-19.38 145.01-17.39L145.01-17.39L145.01-17.39Q144.48-15.40 144.48-13.58L144.48-13.58L144.48-13.58Q144.48-11.76 144.62-10.84L144.62-10.84L144.62-10.84Q144.76-9.91 145.24-8.32L145.24-8.32L145.24-8.32Q145.71-6.72 147.03-5.71L147.03-5.71L147.03-5.71Q148.34-4.70 150.30-4.70L150.30-4.70L150.30-4.70Q152.66-4.70 154.45-6.66L154.45-6.66L154.45-6.66Q155.18-7.45 155.62-8.57L155.62-8.57L155.62-8.57Q155.85-9.02 156.18-9.02L156.18-9.02L156.18-9.02Q156.69-9.02 156.94-8.09L156.94-8.09L156.94-8.09Q157.19-7.17 157.19-6.44" fill="#ffffff" stroke="none" stroke-width="none" transform="translate(-78.34164428710938,15.951554718017578)" style="fill: rgb(255, 255, 255);"></path></g></g>
</g>
</g>
<style id="breath-098015ea-5e39-445c-9edd-dc03e031c1e9" data-anikit="">@keyframes breath-098015ea-5e39-445c-9edd-dc03e031c1e9
{
  0% {
    animation-timing-function: cubic-bezier(0.9647,0.2413,-0.0705,0.7911);
    transform: scale(0.9099999999999999);
  }
  51% {
    animation-timing-function: cubic-bezier(0.9226,0.2631,-0.0308,0.7628);
    transform: scale(1.02994);
  }
  100% {
    transform: scale(0.9099999999999999);
  }
}</style></svg>